<svg width="188" height="50" fill="none" xmlns="http://www.w3.org/2000/svg"><path d="M55.044 32.573v1.622c0 .729-.331 1.093-.994 1.093h-.247c-.687 0-1.03-.364-1.029-1.093V11.381c0-.023.035-.053.107-.088.09-.043.186-.079.283-.106.127-.036.258-.054.39-.053 1.016 0 1.524.74 1.525 2.222v7.758c1.607-2.118 3.699-3.177 6.274-3.177 2.269 0 4.165.81 5.69 2.432 1.526 1.622 2.288 3.738 2.287 6.348 0 2.632-.762 4.765-2.287 6.4-1.524 1.634-3.468 2.45-5.832 2.45-1.441 0-2.7-.288-3.775-.864-1.075-.576-1.873-1.286-2.392-2.13Zm0-8.64v3.95c0 1.574.596 2.914 1.79 4.019a5.98 5.98 0 0 0 4.196 1.657c1.796 0 3.237-.629 4.325-1.886 1.087-1.258 1.63-2.897 1.63-4.919 0-1.975-.555-3.603-1.665-4.884-1.111-1.28-2.518-1.92-4.22-1.917-2.88-.002-4.899 1.325-6.056 3.98ZM74.15 35.288c-.685 0-1.027-.364-1.027-1.093V11.381c0-.023.035-.053.106-.088.091-.043.186-.079.284-.106.127-.036.258-.054.39-.053 1.014 0 1.521.74 1.521 2.222v20.84c0 .728-.343 1.092-1.029 1.092h-.245ZM81.662 14.167c-.992 0-1.488-.506-1.489-1.517 0-1.01.52-1.516 1.564-1.516.994 0 1.49.506 1.49 1.516-.002 1.011-.523 1.517-1.565 1.517Zm-.106 21.121c-.687 0-1.03-.364-1.028-1.093v-14.88c0-.728.343-1.093 1.028-1.093h.248c.685 0 1.028.365 1.028 1.093v14.88c0 .729-.343 1.093-1.028 1.093h-.248ZM90.033 20.973c1.347-2.024 3.261-3.036 5.743-3.036 2.174 0 3.835.664 4.982 1.992 1.147 1.328 1.72 3.133 1.719 5.415v8.85c0 .729-.343 1.093-1.029 1.093h-.248c-.685 0-1.028-.364-1.028-1.093v-8.709c0-1.693-.402-3.015-1.205-3.968-.804-.952-1.915-1.428-3.333-1.428-1.275 0-2.392.318-3.35.952a6.244 6.244 0 0 0-2.215 2.61v10.543c0 .729-.343 1.093-1.029 1.093h-.248c-.685 0-1.028-.364-1.028-1.093V18.468c0-.022.035-.052.107-.088.091-.043.186-.078.283-.105.127-.037.258-.054.39-.053.993 0 1.49.74 1.489 2.221v.53ZM120.237 20.936v-.492c0-1.481.497-2.222 1.49-2.222.132-.001.263.016.39.053.097.027.192.063.283.105.071.036.107.066.107.088V41c0 .729-.343 1.093-1.029 1.094h-.248c-.685 0-1.028-.365-1.028-1.094v-8.603c-1.607 2.116-3.698 3.173-6.275 3.173-2.269 0-4.165-.81-5.689-2.433-1.525-1.622-2.287-3.738-2.287-6.347 0-2.632.762-4.765 2.287-6.4 1.524-1.634 3.468-2.452 5.83-2.453 1.442 0 2.7.287 3.776.863 1.076.575 1.874 1.287 2.393 2.136Zm0 6.912v-3.88c-1.157-2.678-3.154-4.018-5.99-4.019-1.797 0-3.239.63-4.326 1.887-1.088 1.257-1.631 2.897-1.63 4.92 0 1.973.555 3.601 1.666 4.883 1.111 1.281 2.517 1.92 4.218 1.918 1.607 0 3.019-.558 4.236-1.675 1.218-1.116 1.826-2.46 1.826-4.034ZM129.561 32.326V41c0 .729-.343 1.093-1.028 1.094h-.248c-.686 0-1.029-.365-1.029-1.094V18.468c0-.022.036-.052.106-.088.092-.042.187-.078.284-.105.127-.037.258-.054.39-.053.993 0 1.489.74 1.489 2.221v.706c1.584-2.142 3.687-3.212 6.311-3.212 2.268 0 4.165.81 5.689 2.432 1.525 1.622 2.288 3.739 2.291 6.351 0 2.633-.762 4.766-2.286 6.4-1.525 1.634-3.468 2.451-5.831 2.45-1.419 0-2.667-.311-3.743-.934s-1.875-1.393-2.395-2.31Zm-.036-8.392v3.948c0 1.575.597 2.915 1.79 4.02a5.982 5.982 0 0 0 4.197 1.657c1.796 0 3.238-.629 4.325-1.886 1.088-1.258 1.631-2.897 1.63-4.919 0-1.975-.555-3.603-1.666-4.884-1.111-1.28-2.517-1.92-4.218-1.917-2.882-.002-4.901 1.325-6.058 3.98ZM158.453 25.133v-.599c0-1.433-.408-2.538-1.223-3.314-.815-.776-1.991-1.165-3.528-1.165-2.482 0-4.278 1.035-5.389 3.104 0 .024-.105.006-.318-.053a1.608 1.608 0 0 1-.656-.406 1.158 1.158 0 0 1-.34-.881c0-.752.642-1.587 1.928-2.504 1.285-.916 2.936-1.376 4.953-1.378 2.15 0 3.828.582 5.034 1.745 1.205 1.164 1.807 2.756 1.807 4.778v10.578c0 .024-.035.053-.106.088-.091.044-.186.079-.284.106a1.367 1.367 0 0 1-.389.053c-.97 0-1.455-.74-1.454-2.221v-.636a6.876 6.876 0 0 1-2.641 2.275 8.05 8.05 0 0 1-3.669.829c-1.82 0-3.244-.423-4.272-1.27s-1.542-1.987-1.542-3.42c0-1.928.963-3.338 2.89-4.231 1.926-.893 4.875-1.387 8.846-1.481l.353.003Zm-6.062 8.498c1.749 0 3.196-.482 4.343-1.446 1.146-.964 1.719-2.199 1.719-3.703v-1.55l-.992.034c-2.979.119-5.183.472-6.613 1.058-1.43.587-2.145 1.527-2.145 2.82a2.42 2.42 0 0 0 .993 2.031c.662.504 1.561.756 2.695.756ZM169.442 42.094a1.536 1.536 0 0 1-.585-.124 1.996 1.996 0 0 1-.478-.264c-.113-.095-.166-.165-.142-.212l2.835-7.193c-.403 0-.698-.059-.886-.177-.189-.113-.367-.352-.532-.705l-6.169-14.527c-.024-.047.006-.122.089-.225.113-.128.252-.23.408-.3.199-.095.417-.144.638-.14.361-.013.715.107.992.338.261.226.508.64.745 1.251l5.36 13.145 4.644-13.086c.378-1.104.945-1.657 1.701-1.657.201.002.4.044.584.123.167.063.323.152.462.265.105.093.147.164.123.21l-8.153 21.756c-.382 1.014-.927 1.521-1.636 1.522ZM46.653 24.9c0 1.15-.359 2.272-1.027 3.21a5.576 5.576 0 0 1-2.704 2.026c-.294.062-.586.14-.874.226a10.27 10.27 0 0 0-5.04 3.469 10.181 10.181 0 0 0-2.148 6.97 5.529 5.529 0 0 1-1.084 2.73 5.573 5.573 0 0 1-2.334 1.799 5.605 5.605 0 0 1-5.633-.815 5.548 5.548 0 0 1-1.722-2.384 5.52 5.52 0 0 1 1.021-5.57 5.58 5.58 0 0 1 2.458-1.626 10.263 10.263 0 0 0 5.827-3.723 10.173 10.173 0 0 0 2.121-5.893c.008-.26.008-.519 0-.778a10.176 10.176 0 0 0-2.129-5.785 10.265 10.265 0 0 0-5.861-3.72 5.577 5.577 0 0 1-2.44-1.666 5.52 5.52 0 0 1-.928-5.601c.366-.93.979-1.745 1.772-2.357a5.593 5.593 0 0 1 5.665-.695 5.57 5.57 0 0 1 2.296 1.859c.583.814.934 1.769 1.016 2.765-.01.28-.008.564 0 .84.103 2.107.86 4.131 2.166 5.793a10.27 10.27 0 0 0 5.74 3.652 5.578 5.578 0 0 1 2.781 2.018 5.53 5.53 0 0 1 1.061 3.257Z" fill="#fff"/><path d="M8.324 39.033a5.535 5.535 0 0 1 1.23-3.133 5.583 5.583 0 0 1 2.824-1.851 10.27 10.27 0 0 0 6.557-3.797 10.175 10.175 0 0 0 2.186-6.336 5.534 5.534 0 0 1 1.257-2.655 5.579 5.579 0 0 1 2.443-1.645 5.606 5.606 0 0 1 5.568 1.168 5.543 5.543 0 0 1 1.567 2.487 5.518 5.518 0 0 1-1.371 5.493 5.584 5.584 0 0 1-2.554 1.47 10.273 10.273 0 0 0-6.072 3.352 10.18 10.18 0 0 0-2.537 6.501 5.531 5.531 0 0 1-.792 2.22 5.563 5.563 0 0 1-1.646 1.692 5.599 5.599 0 0 1-4.568.737 8.725 8.725 0 0 0-.6-.202 5.57 5.57 0 0 1-2.642-2.188 5.525 5.525 0 0 1-.85-3.313ZM28.293 15.243a5.336 5.336 0 0 1-.774-.205c.26.057.518.125.774.205ZM35.514 25.32a5.669 5.669 0 0 1-.016-.42c0-.12 0-.24.012-.358.011.26.013.519.004.778Z" fill="#fff"/><path d="M27.519 15.038c.26.057.518.125.774.205a5.336 5.336 0 0 1-.774-.205ZM35.514 25.32a5.669 5.669 0 0 1-.016-.42c0-.12 0-.24.012-.358.011.26.013.519.004.778ZM27.55 18.79c.214.066.43.122.646.17a5.32 5.32 0 0 0-.646-.17Z" fill="#fff"/><path d="M28.196 18.96a5.32 5.32 0 0 0-.646-.17c.215.066.43.122.646.17Z" fill="#fff"/></svg>