<svg width="196" height="30" fill="none" xmlns="http://www.w3.org/2000/svg"><path d="M15.003 7.308A7.679 7.679 0 0 0 7.313 15a7.679 7.679 0 0 0 7.69 7.692A7.679 7.679 0 0 0 22.693 15a7.679 7.679 0 0 0-7.69-7.692Zm0 12.693c-2.75 0-5-2.243-5-5.001 0-2.758 2.243-5 5-5 2.758 0 5 2.242 5 5s-2.249 5-5 5Zm9.799-13.007a1.79 1.79 0 0 1-1.794 1.794 1.794 1.794 0 1 1 1.794-1.794Zm5.093 1.82c-.114-2.403-.663-4.531-2.423-6.285C25.718.775 23.59.226 21.187.105c-2.476-.14-9.898-.14-12.374 0C6.417.22 4.288.768 2.528 2.522.768 4.276.226 6.405.105 8.808c-.14 2.477-.14 9.9 0 12.377.114 2.404.663 4.532 2.423 6.286 1.76 1.754 3.882 2.303 6.285 2.424 2.476.14 9.898.14 12.374 0 2.403-.114 4.531-.663 6.285-2.424 1.753-1.754 2.302-3.882 2.423-6.286.14-2.476.14-9.894 0-12.37Zm-3.2 15.029a5.062 5.062 0 0 1-2.85 2.852c-1.975.783-6.66.602-8.842.602-2.181 0-6.873.174-8.84-.602a5.062 5.062 0 0 1-2.852-2.852c-.783-1.975-.602-6.66-.602-8.843 0-2.182-.174-6.875.602-8.843a5.062 5.062 0 0 1 2.851-2.852c1.975-.783 6.66-.602 8.841-.602 2.182 0 6.874-.174 8.841.602a5.062 5.062 0 0 1 2.851 2.852c.784 1.975.603 6.66.603 8.843 0 2.182.18 6.875-.602 8.843ZM172.715 30h-6.22V9.971h6.22V30Zm-3.113-22.761c-1.989 0-3.602-1.647-3.602-3.636a3.603 3.603 0 0 1 7.204 0c0 1.989-1.614 3.636-3.602 3.636ZM195.993 30h-6.206v-9.75c0-2.324-.047-5.304-3.234-5.304-3.233 0-3.729 2.525-3.729 5.137V30h-6.213V9.971h5.966v2.732h.087c.83-1.573 2.858-3.234 5.885-3.234 6.293 0 7.451 4.145 7.451 9.529V30h-.007ZM109.916 8.23c.019.274.019.547.019.82 0 8.34-6.186 17.95-17.493 17.95-3.484 0-6.72-1.035-9.442-2.832.495.059.97.078 1.485.078 2.874 0 5.52-.996 7.633-2.695-2.703-.059-4.968-1.875-5.749-4.375.381.058.762.097 1.162.097.551 0 1.104-.078 1.617-.214-2.817-.586-4.93-3.125-4.93-6.192v-.078c.819.469 1.77.762 2.78.8a6.348 6.348 0 0 1-2.742-5.253c0-1.172.305-2.246.838-3.184C88.12 6.98 92.67 9.48 97.772 9.754a7.304 7.304 0 0 1-.153-1.445C97.62 4.832 100.36 2 103.768 2c1.77 0 3.369.762 4.492 1.992 1.39-.273 2.722-.8 3.902-1.523a6.258 6.258 0 0 1-2.703 3.476A12.077 12.077 0 0 0 113 4.97a13.389 13.389 0 0 1-3.084 3.261Z" fill="#fff"/></svg>