<svg width="88" height="91" fill="none" xmlns="http://www.w3.org/2000/svg"><path opacity=".15" d="M83.943 72.28c6.462-30.484 1.2-50.59-2.164-56.754l-.012-.023-.01-.024c-1.37-3.267-4.53-7.786-9.526-10.67C67.534 2.1 61.18.815 53.08 3.423l.005.014C23.564 13.41 8.946 28.182 5.356 34.218l-.013.022-.015.02C3.215 37.106.936 42.127 1 47.896c.062 5.431 2.2 11.566 8.6 17.214l.002-.003C33.221 84.904 53.334 89.62 60.335 89.533h.026l.025.002c3.515.315 8.978-.356 13.885-3.396 4.169-2.584 7.962-6.892 9.815-13.829l-.143-.03Z" fill="#FCF9FE"/></svg>