<svg width="16" height="16" fill="none" xmlns="http://www.w3.org/2000/svg"><path d="M8 0a8 8 0 1 0 0 16A8 8 0 0 0 8 0Zm0 14.452A6.448 6.448 0 0 1 1.548 8 6.448 6.448 0 0 1 8 1.548 6.448 6.448 0 0 1 14.452 8 6.448 6.448 0 0 1 8 14.452Zm3.463-3.26c-.31.313-1.469 1.335-3.357 1.335-2.659 0-4.532-1.982-4.532-4.567 0-2.553 1.945-4.497 4.509-4.497 1.791 0 2.862.86 3.148 1.122a.386.386 0 0 1 .062.495l-.585.906a.387.387 0 0 1-.565.095c-.277-.219-1.026-.727-1.99-.727-1.559 0-2.514 1.14-2.514 2.583 0 1.341.868 2.7 2.525 2.7 1.054 0 1.834-.614 2.12-.879a.387.387 0 0 1 .575.056l.641.877a.386.386 0 0 1-.037.5Z" fill="#FFBC51"/></svg>